<svg id="basic" xmlns="http://www.w3.org/2000/svg" viewBox="0 0 203.7 44"><defs><style>.cls-1{fill:#004ca1;}.cls-2{fill:#009641;}.cls-3{fill:#c4181f;}.cls-4{fill:#727171;}.cls-5{fill:#231815;}</style></defs><path class="cls-1" d="M30.81.13a20.74,20.74,0,1,1-22.57,31A22.07,22.07,0,1,0,30.81.13Z" transform="translate(-0.07 -0.13)"/><path class="cls-2" d="M25.94.88A19.41,19.41,0,0,0,7.12,25.08,18.31,18.31,0,0,1,7,22.73,18.1,18.1,0,1,1,37.31,36,19.42,19.42,0,0,0,25.94.88Z" transform="translate(-0.07 -0.13)"/><path class="cls-3" d="M.07,20.3c2.34,0,4.21.42,5,2.82.68,2,.41,3.41,2.59,4.17,0,0-4.46.49-5.3-2.47C1.68,22.41,1.8,21.23.07,20.3Z" transform="translate(-0.07 -0.13)"/><path class="cls-3" d="M20.23,20.45c-4.58,0-7,.86-8.24,3.22-1.47,2.8-2.38,3.91-6.66,4.79,0,0,7.26,1.09,9.22-2.84C15.93,22.87,16.62,21.51,20.23,20.45Z" transform="translate(-0.07 -0.13)"/><path class="cls-3" d="M.07,37.33c2.34,0,4.21-.42,5-2.81.68-2,.41-3.42,2.59-4.18,0,0-4.46-.49-5.3,2.47C1.68,35.23,1.8,36.4.07,37.33Z" transform="translate(-0.07 -0.13)"/><path class="cls-3" d="M20.23,37.18c-4.58,0-7-.86-8.24-3.22-1.47-2.8-2.38-3.91-6.66-4.79,0,0,7.26-1.08,9.22,2.84C15.93,34.76,16.62,36.12,20.23,37.18Z" transform="translate(-0.07 -0.13)"/><path class="cls-4" d="M13,12.85c0-.52-.06-.55-.82-.59v-.34h3v.34c-.75,0-.81.07-.81.59V15.1l1-1.13c.49-.54.92-1,1.19-1.37s.13-.29,0-.3l-.42,0v-.34h2.58v.34a1.77,1.77,0,0,0-1.29.46,21.71,21.71,0,0,0-2,1.92,32.39,32.39,0,0,0,2.36,3.12,2,2,0,0,0,.78.62l.09,0v.34l-.59,0a2.37,2.37,0,0,1-2.11-1.09,17.3,17.3,0,0,1-1.57-2.31h0v2.43c0,.52.06.54.81.59v.34h-3v-.34c.76-.05.82-.07.82-.59Z" transform="translate(-0.07 -0.13)"/><path class="cls-4" d="M22,18.43c-1.53,0-1.79-1.76-1.81-3.13s.28-3.12,1.81-3.12,1.79,1.8,1.81,3.12S23.52,18.43,22,18.43Zm0,.4a3.18,3.18,0,0,0,2.48-.93,3.73,3.73,0,0,0,.84-2.6,3.76,3.76,0,0,0-.84-2.6A3.18,3.18,0,0,0,22,11.77a3.14,3.14,0,0,0-2.46.93,3.72,3.72,0,0,0-.86,2.6,3.69,3.69,0,0,0,.86,2.6A3.14,3.14,0,0,0,22,18.83Z" transform="translate(-0.07 -0.13)"/><path class="cls-4" d="M28.22,15.29h.57a1.46,1.46,0,0,1,1.6,1.57A1.24,1.24,0,0,1,29,18.28c-.6,0-.8-.15-.8-.68Zm-2.16,3.4h3.19a3.33,3.33,0,0,0,2-.49,1.66,1.66,0,0,0,.6-1.38,1.79,1.79,0,0,0-1.74-1.77v0c.94-.2,1.45-.73,1.45-1.51a1.34,1.34,0,0,0-.64-1.24,3.29,3.29,0,0,0-1.8-.36H26.06v.34c.76,0,.82.07.82.59v4.91c0,.52-.06.54-.82.59Zm2.16-3.81V12.74c0-.36.14-.4.65-.41a1.17,1.17,0,0,1,1.33,1.26c0,.81-.47,1.29-1.44,1.29Z" transform="translate(-0.07 -0.13)"/><path class="cls-4" d="M32.65,18.35c.75-.05.81-.07.81-.59V12.85c0-.52-.06-.55-.81-.59v-.34H37.8v1.73h-.35c-.23-1-.43-1.32-1.48-1.32h-.8c-.3,0-.36.07-.36.35v2.24H35.9c.69,0,.79-.2.92-.87h.34v2.19h-.34c-.13-.67-.23-.86-.92-.86H34.81V17.5c0,.43.08.64.29.71a3.65,3.65,0,0,0,.93.07c1.18,0,1.45-.41,1.76-1.5h.34L38,18.69H32.65Z" transform="translate(-0.07 -0.13)"/><path class="cls-4" d="M20.53,24.19a1.23,1.23,0,0,1-.13.59,1.06,1.06,0,0,1-1,.43,1.08,1.08,0,0,1-1-.42,1.28,1.28,0,0,1-.12-.6V22.76c0-.21,0-.22-.33-.24v-.14h1.22v.14c-.31,0-.34,0-.34.24V24.2c0,.41.12.84.59.84s.58-.43.58-.84V22.76c0-.21,0-.22-.33-.24v-.14h1.21v.14c-.3,0-.33,0-.33.24Z" transform="translate(-0.07 -0.13)"/><path class="cls-4" d="M22,22.38c.44.67.9,1.34,1.36,2h0V23.32a4,4,0,0,0,0-.58c0-.13-.06-.19-.17-.2l-.21,0v-.14h1v.14l-.15,0c-.09,0-.14.07-.16.2s0,.29,0,.58v1.83h-.38c-.5-.77-1-1.53-1.53-2.3h0v1.36c0,.28,0,.44,0,.58s.06.18.17.19L22,25v.15h-1V25h.15c.09,0,.14-.07.16-.2s0-.3,0-.58V22.76c0-.21,0-.22-.34-.24v-.14Z" transform="translate(-0.07 -0.13)"/><path class="cls-4" d="M25,24.76c0,.21,0,.23.33.24v.15H24.11V25c.31,0,.33,0,.33-.24v-2c0-.21,0-.22-.33-.24v-.14h1.21v.14c-.31,0-.33,0-.33.24Z" transform="translate(-0.07 -0.13)"/><path class="cls-4" d="M26.09,23.85c0-.14-.33-1-.38-1.11s-.11-.21-.32-.22v-.14h1.14v.14l-.19,0c-.1,0-.1.06-.07.14l.31,1,.33,1h0c0-.13.31-.91.36-1.07a8.79,8.79,0,0,0,.26-.87c0-.08,0-.12-.08-.13l-.21,0v-.14h.91v.14c-.22,0-.27,0-.35.23s-.21.57-.37,1L27,25.15h-.42Z" transform="translate(-0.07 -0.13)"/><path class="cls-4" d="M28.14,25c.31,0,.33,0,.33-.24v-2c0-.21,0-.22-.33-.24v-.14h2.11v.71H30.1c-.09-.4-.17-.54-.6-.54h-.33c-.12,0-.15,0-.15.14v.92h.45c.28,0,.32-.08.37-.36H30v.9h-.14c-.05-.28-.09-.35-.37-.35H29v.86c0,.17,0,.26.12.29a2,2,0,0,0,.39,0c.47,0,.59-.16.71-.6h.14l-.05.78H28.14Z" transform="translate(-0.07 -0.13)"/><path class="cls-4" d="M31.5,23.7v-1c0-.13,0-.17.27-.17a.49.49,0,0,1,.53.56c0,.37-.16.59-.56.59Zm0,.16h.22a.36.36,0,0,1,.4.33c0,.13.07.38.13.57s.25.39.6.39h.31V25a.33.33,0,0,1-.2-.08.7.7,0,0,1-.2-.45c0-.33-.13-.6-.54-.7h0a.71.71,0,0,0,.67-.68c0-.39-.23-.7-.95-.7H30.62v.14c.31,0,.33,0,.33.24v2c0,.21,0,.23-.33.24v.15h1.21V25c-.3,0-.33,0-.33-.24Z" transform="translate(-0.07 -0.13)"/><path class="cls-4" d="M35,23.12c-.09-.45-.32-.63-.59-.63a.43.43,0,0,0-.46.44c0,.29.29.44.55.54l.12.05c.38.15.7.37.7.83s-.25.85-1,.86a1.37,1.37,0,0,1-.84-.25l0-.69h.14c.14.48.42.77.75.77a.44.44,0,0,0,.49-.48c0-.29-.2-.45-.47-.56l-.09,0c-.38-.15-.78-.38-.78-.84s.32-.8,1-.8a1.43,1.43,0,0,1,.72.18v.62Z" transform="translate(-0.07 -0.13)"/><path class="cls-4" d="M36.5,24.76c0,.21,0,.23.33.24v.15H35.62V25c.3,0,.33,0,.33-.24v-2c0-.21,0-.22-.33-.24v-.14h1.21v.14c-.31,0-.33,0-.33.24Z" transform="translate(-0.07 -0.13)"/><path class="cls-4" d="M37.53,25l.24,0c.14,0,.16-.06.16-.21V22.55h-.18c-.41,0-.47.14-.58.55H37v-.72h2.34v.72h-.14c-.1-.41-.16-.55-.57-.55h-.18v2.22c0,.15,0,.2.16.21l.24,0v.15H37.53Z" transform="translate(-0.07 -0.13)"/><path class="cls-4" d="M40.07,25c.37,0,.39,0,.39-.24v-.58a.63.63,0,0,0-.07-.26l-.61-1.18c-.09-.18-.13-.21-.34-.22v-.14h1.18v.14l-.22,0c-.08,0-.09.05,0,.12l.53,1.13h0c.18-.38.41-.85.51-1.11,0-.09,0-.14,0-.15l-.21,0v-.14h.93v.14c-.24,0-.29.05-.4.23s-.4.74-.59,1.14a.56.56,0,0,0-.07.26v.61c0,.21,0,.23.4.24v.15H40.07Z" transform="translate(-0.07 -0.13)"/><path class="cls-5" d="M135.89,34.92l.14-.07c11.36-5.93,13.2-13.94,13.43-17.44H135.89V14.54h13.58V6.73h3v7.81H166v2.87H152.5c.23,3.5,2.08,11.52,13.44,17.44l.06,0-2.52,2.65-.18-.11c-.09-.06-8.77-5.55-12.32-14.52-3.55,9-12.23,14.46-12.31,14.52l-.19.11Z" transform="translate(-0.07 -0.13)"/><path class="cls-5" d="M83.25,12.41V6.74H80.36v5.67H73.14V23.34L69,19.8a41.37,41.37,0,0,0,3-4.67l.08-.16-1.92-2.56H67.85l1.58-1.75L65,6.74,63.12,8.83l4.06,3.58H60.36v2.88h8.18A29.06,29.06,0,0,1,59,25.57l2,2A22.74,22.74,0,0,0,65.46,24V37.53h2.9V22.93l3.15,2.7,1.63-1.87v4.1h7.22v9.67h2.89V27.86h7.21V12.41ZM80.36,25H76V21.57h4.32Zm0-6.28H76V15.29h4.32ZM87.57,25H83.25V21.57h4.32Zm0-6.28H83.25V15.29h4.32Z" transform="translate(-0.07 -0.13)"/><rect class="cls-5" x="101.36" y="8.91" width="26.8" height="2.87"/><path class="cls-5" d="M103.38,14.54v10c-.06,2.13-.71,7.46-5.17,10.82l-.08.07,2.39,2.12.07-.06a17.76,17.76,0,0,0,5.92-10.77h19.77V14.54Zm19.47,9.28H106.62V17.41h16.23Z" transform="translate(-0.07 -0.13)"/><polygon class="cls-5" points="190.32 26 190.32 25.6 197.48 20.85 197.48 18.11 179.82 18.11 179.82 20.98 192.07 20.98 187.43 24.07 187.43 26 173.59 26 173.59 28.87 187.43 28.87 187.43 34.52 183.6 34.52 183.6 37.4 190.32 37.4 190.32 28.87 203.7 28.87 203.7 26 190.32 26"/><path class="cls-5" d="M177.54,15.31h22.37v4.87h2.9V12.44H197a26.59,26.59,0,0,0,3.17-3.64l-2.69-2.07-.17.28a32.24,32.24,0,0,1-4.5,5.43H188.9l1.56-.95-3-4.76-2.39,1.45,2.66,4.26h-4.64l1.57-.95-3-4.76-2.39,1.45L182,12.44h-7.37v7.74h2.9Z" transform="translate(-0.07 -0.13)"/></svg>